<?xml version="1.0" encoding="UTF-8"?>
<svg xmlns="http://www.w3.org/2000/svg" width="480" height="636">
<rect width="100%" height="100%" fill="#ffffff"/>
<text x="240" y="36" text-anchor="middle" font-size="16" font-family="sans-serif" font-size="18" fill="#111827">五阶段双分支神经网络方法流程图</text>
<defs><marker id="arrow" markerWidth="10" markerHeight="10" refX="5" refY="3" orient="auto"><path d="M0,0 L0,6 L9,3 z" fill="#111827"/></marker></defs>
<rect x="130" y="60" width="220" height="50" rx="6" fill="#eef2ff" stroke="#111827" stroke-width="2"/>
<text x="240" y="90" text-anchor="middle" font-size="14" font-family="sans-serif" fill="#111827">数据预处理模块（缺失值清洗、归一化、数据增强）</text>
<line x1="240" y1="110" x2="240" y2="146" stroke="#111827" stroke-width="2" marker-end="url(#arrow)"/>
<rect x="130" y="146" width="220" height="50" rx="6" fill="#eef2ff" stroke="#111827" stroke-width="2"/>
<text x="240" y="176" text-anchor="middle" font-size="14" font-family="sans-serif" fill="#111827">特征提取模块（时域与频域特征）</text>
<line x1="240" y1="196" x2="240" y2="232" stroke="#111827" stroke-width="2" marker-end="url(#arrow)"/>
<rect x="130" y="232" width="220" height="50" rx="6" fill="#eef2ff" stroke="#111827" stroke-width="2"/>
<text x="240" y="262" text-anchor="middle" font-size="14" font-family="sans-serif" fill="#111827">CNN分支模块（局部特征提取）</text>
<line x1="240" y1="282" x2="240" y2="318" stroke="#111827" stroke-width="2" marker-end="url(#arrow)"/>
<rect x="130" y="318" width="220" height="50" rx="6" fill="#eef2ff" stroke="#111827" stroke-width="2"/>
<text x="240" y="348" text-anchor="middle" font-size="14" font-family="sans-serif" fill="#111827">Transformer分支模块（全局依赖建模）</text>
<line x1="240" y1="368" x2="240" y2="404" stroke="#111827" stroke-width="2" marker-end="url(#arrow)"/>
<rect x="130" y="404" width="220" height="50" rx="6" fill="#eef2ff" stroke="#111827" stroke-width="2"/>
<text x="240" y="434" text-anchor="middle" font-size="14" font-family="sans-serif" fill="#111827">特征融合模块（拼接+注意力加权）</text>
<line x1="240" y1="454" x2="240" y2="490" stroke="#111827" stroke-width="2" marker-end="url(#arrow)"/>
<rect x="130" y="490" width="220" height="50" rx="6" fill="#eef2ff" stroke="#111827" stroke-width="2"/>
<text x="240" y="520" text-anchor="middle" font-size="14" font-family="sans-serif" fill="#111827">分类输出模块（Softmax+交叉熵损失）</text>
</svg>